<svg width="84" height="41" viewBox="0 0 84 41" fill="none" xmlns="http://www.w3.org/2000/svg">
<path d="M10.016 25.144C9.368 25.144 8.764 25.04 8.204 24.832C7.652 24.616 7.172 24.312 6.764 23.92C6.356 23.528 6.036 23.068 5.804 22.54C5.58 22.012 5.468 21.432 5.468 20.8C5.468 20.168 5.58 19.588 5.804 19.06C6.036 18.532 6.356 18.072 6.764 17.68C7.18 17.288 7.664 16.988 8.216 16.78C8.768 16.564 9.372 16.456 10.028 16.456C10.756 16.456 11.412 16.584 11.996 16.84C12.588 17.088 13.084 17.456 13.484 17.944L12.236 19.096C11.948 18.768 11.628 18.524 11.276 18.364C10.924 18.196 10.54 18.112 10.124 18.112C9.732 18.112 9.372 18.176 9.044 18.304C8.716 18.432 8.432 18.616 8.192 18.856C7.952 19.096 7.764 19.38 7.628 19.708C7.5 20.036 7.436 20.4 7.436 20.8C7.436 21.2 7.5 21.564 7.628 21.892C7.764 22.22 7.952 22.504 8.192 22.744C8.432 22.984 8.716 23.168 9.044 23.296C9.372 23.424 9.732 23.488 10.124 23.488C10.54 23.488 10.924 23.408 11.276 23.248C11.628 23.08 11.948 22.828 12.236 22.492L13.484 23.644C13.084 24.132 12.588 24.504 11.996 24.76C11.412 25.016 10.752 25.144 10.016 25.144ZM21.5768 16.6H23.5208V25H21.5768V16.6ZM17.7608 25H15.8168V16.6H17.7608V25ZM21.7208 21.556H17.6168V19.912H21.7208V21.556ZM26.5282 25V16.6H28.4722V25H26.5282ZM35.5057 25.144C34.8577 25.144 34.2537 25.04 33.6937 24.832C33.1417 24.616 32.6617 24.312 32.2537 23.92C31.8457 23.528 31.5257 23.068 31.2937 22.54C31.0697 22.012 30.9577 21.432 30.9577 20.8C30.9577 20.168 31.0697 19.588 31.2937 19.06C31.5257 18.532 31.8457 18.072 32.2537 17.68C32.6697 17.288 33.1537 16.988 33.7057 16.78C34.2577 16.564 34.8617 16.456 35.5177 16.456C36.2457 16.456 36.9017 16.584 37.4857 16.84C38.0777 17.088 38.5737 17.456 38.9737 17.944L37.7257 19.096C37.4377 18.768 37.1177 18.524 36.7657 18.364C36.4137 18.196 36.0297 18.112 35.6137 18.112C35.2217 18.112 34.8617 18.176 34.5337 18.304C34.2057 18.432 33.9217 18.616 33.6817 18.856C33.4417 19.096 33.2537 19.38 33.1177 19.708C32.9897 20.036 32.9257 20.4 32.9257 20.8C32.9257 21.2 32.9897 21.564 33.1177 21.892C33.2537 22.22 33.4417 22.504 33.6817 22.744C33.9217 22.984 34.2057 23.168 34.5337 23.296C34.8617 23.424 35.2217 23.488 35.6137 23.488C36.0297 23.488 36.4137 23.408 36.7657 23.248C37.1177 23.08 37.4377 22.828 37.7257 22.492L38.9737 23.644C38.5737 24.132 38.0777 24.504 37.4857 24.76C36.9017 25.016 36.2417 25.144 35.5057 25.144ZM40.0501 25L43.7941 16.6H45.7141L49.4701 25H47.4301L44.3581 17.584H45.1261L42.0421 25H40.0501ZM41.9221 23.2L42.4381 21.724H46.7581L47.2861 23.2H41.9221ZM55.3004 25.144C54.6364 25.144 54.0244 25.04 53.4644 24.832C52.9124 24.616 52.4284 24.312 52.0124 23.92C51.6044 23.528 51.2844 23.068 51.0524 22.54C50.8284 22.012 50.7164 21.432 50.7164 20.8C50.7164 20.168 50.8284 19.588 51.0524 19.06C51.2844 18.532 51.6084 18.072 52.0244 17.68C52.4404 17.288 52.9284 16.988 53.4884 16.78C54.0484 16.564 54.6644 16.456 55.3364 16.456C56.0804 16.456 56.7484 16.58 57.3404 16.828C57.9404 17.076 58.4444 17.436 58.8524 17.908L57.6044 19.06C57.3004 18.74 56.9684 18.504 56.6084 18.352C56.2484 18.192 55.8564 18.112 55.4324 18.112C55.0244 18.112 54.6524 18.176 54.3164 18.304C53.9804 18.432 53.6884 18.616 53.4404 18.856C53.2004 19.096 53.0124 19.38 52.8764 19.708C52.7484 20.036 52.6844 20.4 52.6844 20.8C52.6844 21.192 52.7484 21.552 52.8764 21.88C53.0124 22.208 53.2004 22.496 53.4404 22.744C53.6884 22.984 53.9764 23.168 54.3044 23.296C54.6404 23.424 55.0084 23.488 55.4084 23.488C55.7924 23.488 56.1644 23.428 56.5244 23.308C56.8924 23.18 57.2484 22.968 57.5924 22.672L58.6964 24.076C58.2404 24.42 57.7084 24.684 57.1004 24.868C56.5004 25.052 55.9004 25.144 55.3004 25.144ZM56.9204 23.824V20.668H58.6964V24.076L56.9204 23.824ZM65.6022 25.144C64.9382 25.144 64.3222 25.036 63.7542 24.82C63.1942 24.604 62.7062 24.3 62.2902 23.908C61.8822 23.516 61.5622 23.056 61.3302 22.528C61.1062 22 60.9942 21.424 60.9942 20.8C60.9942 20.176 61.1062 19.6 61.3302 19.072C61.5622 18.544 61.8862 18.084 62.3022 17.692C62.7182 17.3 63.2062 16.996 63.7662 16.78C64.3262 16.564 64.9342 16.456 65.5902 16.456C66.2542 16.456 66.8622 16.564 67.4142 16.78C67.9742 16.996 68.4582 17.3 68.8662 17.692C69.2822 18.084 69.6062 18.544 69.8382 19.072C70.0702 19.592 70.1862 20.168 70.1862 20.8C70.1862 21.424 70.0702 22.004 69.8382 22.54C69.6062 23.068 69.2822 23.528 68.8662 23.92C68.4582 24.304 67.9742 24.604 67.4142 24.82C66.8622 25.036 66.2582 25.144 65.6022 25.144ZM65.5902 23.488C65.9662 23.488 66.3102 23.424 66.6222 23.296C66.9422 23.168 67.2222 22.984 67.4622 22.744C67.7022 22.504 67.8862 22.22 68.0142 21.892C68.1502 21.564 68.2182 21.2 68.2182 20.8C68.2182 20.4 68.1502 20.036 68.0142 19.708C67.8862 19.38 67.7022 19.096 67.4622 18.856C67.2302 18.616 66.9542 18.432 66.6342 18.304C66.3142 18.176 65.9662 18.112 65.5902 18.112C65.2142 18.112 64.8662 18.176 64.5462 18.304C64.2342 18.432 63.9582 18.616 63.7182 18.856C63.4782 19.096 63.2902 19.38 63.1542 19.708C63.0262 20.036 62.9622 20.4 62.9622 20.8C62.9622 21.192 63.0262 21.556 63.1542 21.892C63.2902 22.22 63.4742 22.504 63.7062 22.744C63.9462 22.984 64.2262 23.168 64.5462 23.296C64.8662 23.424 65.2142 23.488 65.5902 23.488Z" fill="#CB202D"/>
<mask id="path-2-inside-1_954_178" fill="white">
<path d="M48.4458 29.0969C46.9283 29.9634 46.3831 31.9157 47.4727 33.2819C49.6228 35.9779 52.43 38.1021 55.6468 39.4362C59.8432 41.1765 64.4988 41.4736 68.8824 40.2808C73.2659 39.088 77.1291 36.473 79.8652 32.8463C82.6012 29.2197 84.0551 24.787 83.9984 20.2444C83.9418 15.7018 82.3778 11.3067 79.5522 7.74942C76.7266 4.19215 72.7994 1.67422 68.3874 0.591134C63.9755 -0.491956 59.3288 -0.0788508 55.1771 1.76556C51.9946 3.17943 49.2411 5.37295 47.1589 8.12178C46.1038 9.51471 46.6975 11.4528 48.2361 12.2812V12.2812C49.7747 13.1097 51.6707 12.5021 52.8193 11.1852C54.1688 9.63785 55.847 8.39241 57.7463 7.54864C60.6164 6.27358 63.8287 5.98799 66.8788 6.73675C69.9288 7.4855 72.6437 9.22617 74.5971 11.6854C76.5505 14.1446 77.6317 17.1829 77.6708 20.3233C77.71 23.4636 76.7049 26.528 74.8134 29.0352C72.922 31.5423 70.2513 33.3501 67.2209 34.1747C64.1905 34.9993 60.972 34.7939 58.071 33.5908C56.1513 32.7947 54.4425 31.5915 53.0549 30.0783C51.8738 28.7904 49.9632 28.2303 48.4458 29.0969V29.0969Z"/>
</mask>
<path d="M48.4458 29.0969C46.9283 29.9634 46.3831 31.9157 47.4727 33.2819C49.6228 35.9779 52.43 38.1021 55.6468 39.4362C59.8432 41.1765 64.4988 41.4736 68.8824 40.2808C73.2659 39.088 77.1291 36.473 79.8652 32.8463C82.6012 29.2197 84.0551 24.787 83.9984 20.2444C83.9418 15.7018 82.3778 11.3067 79.5522 7.74942C76.7266 4.19215 72.7994 1.67422 68.3874 0.591134C63.9755 -0.491956 59.3288 -0.0788508 55.1771 1.76556C51.9946 3.17943 49.2411 5.37295 47.1589 8.12178C46.1038 9.51471 46.6975 11.4528 48.2361 12.2812V12.2812C49.7747 13.1097 51.6707 12.5021 52.8193 11.1852C54.1688 9.63785 55.847 8.39241 57.7463 7.54864C60.6164 6.27358 63.8287 5.98799 66.8788 6.73675C69.9288 7.4855 72.6437 9.22617 74.5971 11.6854C76.5505 14.1446 77.6317 17.1829 77.6708 20.3233C77.71 23.4636 76.7049 26.528 74.8134 29.0352C72.922 31.5423 70.2513 33.3501 67.2209 34.1747C64.1905 34.9993 60.972 34.7939 58.071 33.5908C56.1513 32.7947 54.4425 31.5915 53.0549 30.0783C51.8738 28.7904 49.9632 28.2303 48.4458 29.0969V29.0969Z" stroke="#CB202D" stroke-width="2" mask="url(#path-2-inside-1_954_178)"/>
</svg>
